<svg xmlns="http://www.w3.org/2000/svg" viewBox="0 0 512 512" style="enable-background:new 0 0 512 512" xml:space="preserve"><path style="fill:#ff7945" d="M212.144 457.804v29.685c0 8.987 7.353 16.34 16.34 16.34h55.03c8.987 0 16.34-7.353 16.34-16.34v-29.685h-87.71z"/><path style="fill:#5d8ae1" d="m170.086 357.311 42.058 54.468h87.711l42.059-54.468L256 335.523z"/><path style="fill:#db412c" d="m256 8.17 28.638 349.14h57.275l52.39-67.849c22.784-29.502 36.341-66.488 36.341-106.647C430.644 86.361 352.453 8.17 256 8.17z"/><path style="fill:#6db4f5" d="M81.356 182.814c0 40.159 13.557 77.145 36.341 106.647l52.39 67.849h57.275L256 8.17c-96.453 0-174.644 78.191-174.644 174.644z"/><path style="fill:#ffd83d" d="M197.786 182.814c0 40.159 4.519 77.145 12.114 106.647l17.462 67.849h57.275l17.464-67.849c7.595-29.502 12.114-66.488 12.114-106.647C314.214 86.361 288.151 8.17 256 8.17s-58.214 78.191-58.214 174.644z"/><path d="M438.814 182.814C438.814 82.01 356.804 0 256 0S73.186 82.01 73.186 182.814c0 40.807 13.156 79.412 38.045 111.64l92.745 120.111v72.924c0 13.515 10.996 24.511 24.511 24.511h55.03c13.515 0 24.511-10.996 24.511-24.511v-72.923l92.744-120.111c24.886-32.227 38.042-70.833 38.042-111.641zM220.315 419.949h71.371v29.685h-71.371v-29.685zm75.526-16.341h-79.682l-29.441-38.128h138.565l-29.442 38.128zm-12.326 92.052h-55.03c-4.506 0-8.17-3.665-8.17-8.17v-21.515h71.371v21.515c-.001 4.505-3.665 8.17-8.171 8.17zm54.384-146.52H174.101l-49.937-64.672c-22.66-29.342-34.637-64.492-34.637-101.653 0-81.223 58.473-149.034 135.532-163.579-23.191 32.061-35.442 99.279-35.442 163.579 0 39.66 4.278 77.242 12.372 108.683l9.05 35.164a8.173 8.173 0 0 0 9.949 5.877 8.171 8.171 0 0 0 5.877-9.949l-9.05-35.165c-7.756-30.128-11.857-66.302-11.857-104.609 0-45.794 5.907-88.734 16.632-120.908C232.098 33.375 244.588 16.34 256 16.34c10.593 0 22.42 15.132 31.639 40.477 10.398 28.591 16.846 67.624 18.154 109.91a8.169 8.169 0 0 0 8.418 7.913 8.169 8.169 0 0 0 7.913-8.42c-1.361-43.973-8.154-84.81-19.131-114.989-4.779-13.141-10.184-23.84-16.106-32.008 77.085 14.523 135.585 82.348 135.585 163.589 0 37.16-11.978 72.312-34.638 101.653l-49.935 64.675z"/><path d="M314.209 190.989c-4.514-.173-8.28 3.404-8.419 7.913-1 32.318-5.012 62.929-11.601 88.524l-9.053 35.168a8.172 8.172 0 0 0 7.918 10.208 8.176 8.176 0 0 0 7.908-6.136l9.053-35.167c6.884-26.744 11.071-58.588 12.107-92.09a8.17 8.17 0 0 0-7.913-8.42z"/></svg>