<svg xmlns="http://www.w3.org/2000/svg" viewBox="0 0 1000 1000" xml:space="preserve"><switch><g><circle fill="#382B73" cx="500" cy="500" r="398"/><circle fill="#473080" cx="500" cy="500" r="344.3"/><path fill="#382B73" d="M743 611.8v-2.6c-.8-39.9-20.9-75.1-51.3-96.6l49.4-68.9-80.4-106.6H339l-80.4 106.6 241.3 336.2 39.2-54.6 10.9-15.2c20.1 14.6 44.8 23.3 71.5 23.3 34.6 0 65.8-14.5 88-37.6 20.7-21.9 33.5-51.4 33.5-84z"/><g><path fill="#FFF" d="M741.1 413.7H258.6L339 307.1h321.7z"/><path fill="#D1D3D4" d="m741.1 413.7-61.3 85.5L539 695.3l-39.2 54.6-241.2-336.2z"/><g fill="#E6E7E8"><path d="M580.3 413.7H419.4l80.4-106.6zM419.4 413.7H258.6L339 307.1zM741.1 413.7H580.3l80.4-106.6z"/></g><path fill="#FFF" d="m419.4 413.7 80.4 336.2 80.5-336.2z"/><path fill="#BCBEC0" d="M679.8 499.2 539 695.3c-2.7-2.4-5.2-5-7.6-7.6-3.5-3.8-6.7-7.9-9.7-12.1-.6-.9-1.2-1.7-1.8-2.6-.7-1-1.3-2-1.9-3-1-1.6-2-3.3-2.9-4.9-.9-1.7-1.8-3.3-2.7-5.1-.7-1.3-1.3-2.7-1.9-4l-1.2-2.7c-3.1-7.3-5.5-14.9-7.1-22.8-1.6-7.9-2.5-16.1-2.5-24.5 0-67.2 54.4-121.6 121.6-121.6 21.3-.1 41.1 5.3 58.5 14.8z"/><g><circle fill="#009ADD" cx="621.4" cy="581.8" r="121.6"/><path fill="#136DA0" d="M621.4 683.2c-63.7 0-116-49.1-121.1-111.5-.3 3.3-.5 6.7-.5 10.1 0 67.1 54.4 121.6 121.6 121.6 67.1 0 121.6-54.4 121.6-121.6 0-3.4-.2-6.8-.5-10.1-5.1 62.4-57.3 111.5-121.1 111.5z"/><path fill="#136DA0" d="M709.7 563.9s0-.1-.1-.1c0-.1 0-.1-.1-.2-1-2.2-3-3.9-5.4-4.5l-19.7-5.1 7.8-13.2c.7-1.3 1.1-2.7 1.1-4V526.4c.1-1.7-.4-3.5-1.4-5l-.1-.1c-.1-.1-.2-.2-.3-.4-.1-.1-.1-.2-.2-.3 0 0 0-.1-.1-.1-.1-.2-.3-.3-.4-.4l-13.2-13.2c-1.7-1.7-4.1-2.6-6.4-2.4-1.2.1-2.5.5-3.6 1.1l-20.7 12.2-2.1-.9-6-23.3c-.6-2.5-2.4-4.4-4.6-5.4h-.1c-.1 0-.2-.1-.3-.1-.1 0-.2-.1-.3-.1-.8-.3-1.7-.4-2.7-.4h-18.7c-1.1 0-2.2.2-3.2.6-.1 0-.1 0-.2.1-.1 0-.1.1-.2.1-2.2 1-3.8 3-4.5 5.4l-6 23.3-2.1.9-20.7-12.2c-1.1-.7-2.4-1-3.6-1.1-2.3-.2-4.7.7-6.4 2.4L552 520.2l-.4.4-.1.1c-.1.1-.1.2-.2.3-.1.1-.2.2-.3.4l-.1.1c-1 1.5-1.5 3.2-1.4 5V536.9c0 1.4.4 2.8 1.1 4l7.8 13.2-19.7 5.1c-2.4.6-4.4 2.3-5.4 4.5 0 .1-.1.1-.1.2 0 0 0 .1-.1.1-.4 1-.6 2.1-.6 3.2V596.5c0 3.8 2.5 7 6.2 8l19.7 5.1-7.8 13.2c-.2.3-.3.7-.5 1-.5 1.2-.7 2.4-.6 3.6V637.2c-.1 2.3.7 4.5 2.4 6.2l13.2 13.2c2.7 2.7 6.8 3.2 10 1.3l20.7-12.2 2.1.9 6 23.3c.9 3.6 4.2 6.2 8 6.2h18.7c3.8 0 7-2.5 8-6.2l6-23.3 2.1-.9 20.7 12.2c3.2 1.9 7.4 1.4 10-1.3l13.2-13.2c1.7-1.7 2.5-3.9 2.4-6.2V627.4c.1-1.2-.1-2.4-.6-3.6-.1-.3-.3-.7-.5-1l-7.8-13.2 19.7-5.1c3.6-.9 6.2-4.2 6.2-8V567.2c.3-1.3.1-2.3-.3-3.3zm-88.3-7.4c14.5 0 26.6 10.5 29 24.3-2.1 14.1-14.3 24.9-29 24.9s-26.9-10.8-29-24.9c2.4-13.8 14.5-24.3 29-24.3z"/><g><path fill="#E7AD27" d="M621.4 621c-24.9 0-45.1-20.2-45.1-45.1s20.2-45.1 45.1-45.1c24.9 0 45.1 20.2 45.1 45.1S646.3 621 621.4 621zm0-74.5c-16.2 0-29.5 13.2-29.5 29.5 0 16.2 13.2 29.5 29.5 29.5 16.2 0 29.5-13.2 29.5-29.5s-13.2-29.5-29.5-29.5z"/><path fill="#E7AD27" d="M693.3 516.6v-1c-.1-2-.9-3.9-2.4-5.4L677.7 497c-2.7-2.7-6.8-3.2-10-1.3L647 507.9l-2.1-.9-6-23.3c-.9-3.6-4.2-6.2-8-6.2h-18.7c-3.8 0-7 2.5-8 6.2l-6 23.3-2.1.9-20.7-12.2c-3.2-1.9-7.4-1.4-10 1.3L552 510.2c-1.5 1.5-2.3 3.4-2.4 5.4v11.2c0 1.4.4 2.8 1.1 4l7.8 13.2-19.7 5.1c-3.6.9-6.2 4.2-6.2 8v29.3c0 3.8 2.5 7 6.2 8l19.7 5.1-7.8 13.2c-.8 1.3-1.1 2.7-1.1 4.2v10.2c-.1 2.3.7 4.5 2.4 6.2l13.2 13.2c2.7 2.7 6.8 3.2 10 1.3l20.7-12.2 2.1.9 6 23.3c.9 3.6 4.2 6.2 8 6.2h18.7c3.8 0 7-2.5 8-6.2l6-23.3 2.1-.9 20.7 12.2c3.2 1.9 7.4 1.4 10-1.3l13.2-13.2c1.7-1.7 2.5-3.9 2.4-6.2V616.9c0-1.4-.4-2.9-1.1-4.2l-7.8-13.2 19.7-5.1c3.6-.9 6.2-4.2 6.2-8v-29.3c0-3.8-2.5-7-6.2-8l-19.7-5.1 7.8-13.2c.7-1.3 1.1-2.7 1.1-4v-.2l.2-10zm-71.9 79.3c-16.2 0-29.5-13.2-29.5-29.5 0-16.2 13.2-29.5 29.5-29.5 16.2 0 29.5 13.2 29.5 29.5 0 16.2-13.2 29.5-29.5 29.5z"/><path fill="#FEDE3A" d="M621.4 502.6c-35.3 0-63.8 28.6-63.8 63.8s28.6 63.8 63.8 63.8 63.8-28.6 63.8-63.8-28.5-63.8-63.8-63.8zm0 93.1c-16.2 0-29.3-13.1-29.3-29.3s13.1-29.3 29.3-29.3 29.3 13.1 29.3 29.3-13.1 29.3-29.3 29.3z"/><g fill="#FEDE3A"><path d="M637.1 518.5h-31.4c-5.4 0-9.3-5.1-8-10.3l6.3-24.5c.9-3.6 4.2-6.2 8-6.2h18.7c3.8 0 7 2.5 8 6.2l6.3 24.5c1.5 5.2-2.5 10.3-7.9 10.3zM605.7 614.3h31.4c5.4 0 9.3 5.1 8 10.3l-6.3 24.5c-.9 3.6-4.2 6.2-8 6.2h-18.7c-3.8 0-7-2.5-8-6.2l-6.3-24.5c-1.4-5.2 2.5-10.3 7.9-10.3zM669.3 582.1v-31.4c0-5.4 5.1-9.3 10.3-8l24.5 6.3c3.6.9 6.2 4.2 6.2 8v18.7c0 3.8-2.5 7-6.2 8l-24.5 6.3c-5.2 1.4-10.3-2.5-10.3-7.9zM573.5 550.7v31.4c0 5.4-5.1 9.3-10.3 8l-24.5-6.3c-3.6-.9-6.2-4.2-6.2-8v-18.7c0-3.8 2.5-7 6.2-8l24.5-6.3c5.2-1.4 10.3 2.5 10.3 7.9z"/><g><path d="m666.4 543.6-22.2-22.2c-3.8-3.8-3-10.2 1.6-12.9l21.8-12.8c3.2-1.9 7.4-1.4 10 1.3l13.2 13.2c2.7 2.7 3.2 6.8 1.3 10L679.3 542c-2.7 4.6-9.1 5.5-12.9 1.6zM576.5 589.2l22.2 22.2c3.8 3.8 3 10.2-1.6 12.9l-21.8 12.8c-3.2 1.9-7.4 1.4-10-1.3L552 622.6c-2.7-2.7-3.2-6.8-1.3-10l12.8-21.8c2.8-4.6 9.1-5.4 13-1.6z"/></g><g><path d="m644.2 611.4 22.2-22.2c3.8-3.8 10.2-3 12.9 1.6l12.8 21.8c1.9 3.2 1.4 7.4-1.3 10l-13.2 13.2c-2.7 2.7-6.8 3.2-10 1.3l-21.8-12.8c-4.6-2.7-5.4-9.1-1.6-12.9zM598.7 521.4l-22.2 22.2c-3.8 3.8-10.2 3-12.9-1.6l-12.8-21.8c-1.9-3.2-1.4-7.4 1.3-10l13.2-13.2c2.7-2.7 6.8-3.2 10-1.3l21.8 12.8c4.6 2.7 5.4 9.1 1.6 12.9z"/></g></g><path fill="#FFF335" d="M621.4 619.8c-29.5 0-53.4-24-53.4-53.4 0-29.5 24-53.4 53.4-53.4 29.5 0 53.4 24 53.4 53.4.1 29.5-23.9 53.4-53.4 53.4zm0-98.5c-24.9 0-45.1 20.2-45.1 45.1s20.2 45.1 45.1 45.1 45.1-20.2 45.1-45.1-20.2-45.1-45.1-45.1z"/><path fill="#F7CB15" d="M621.4 611.5c-24.9 0-45.1-20.2-45.1-45.1s20.2-45.1 45.1-45.1c24.9 0 45.1 20.2 45.1 45.1s-20.2 45.1-45.1 45.1zm0-74.5c-16.2 0-29.5 13.2-29.5 29.5 0 16.2 13.2 29.5 29.5 29.5 16.2 0 29.5-13.2 29.5-29.5S637.7 537 621.4 537z"/></g></g></g></g></switch></svg>